<svg xmlns="http://www.w3.org/2000/svg" viewBox="0 0 96.03 96.03"><g id="Capa_2" data-name="Capa 2"><g id="Capa_1-2" data-name="Capa 1"><path d="M58.82,44.18c-.65.61-1.29,1.26-1.89,1.91l0,0h-.06l-1.28.2-.38.06.22-.31c.44-.62.88-1.21,1.33-1.77l0,0h.05c.61-.13,1.24-.25,1.87-.35l.51-.08Zm2.42,12c-1-.54-2-1-3.05-1.48l0,0,0,0c-.48-.71-1-1.42-1.53-2.1l-.29-.37.46.12,1,.28c.54.17,1.1.35,1.67.55l0,0,0,0c.69.9,1.35,1.83,2,2.79l.33.52ZM56.6,58.43c-.74-.58-1.52-1.14-2.32-1.67l0,0,0-.05c-.23-.62-.48-1.22-.74-1.81l-.17-.39.39.18c.71.34,1.43.71,2.15,1.12l0,0,0,0c.38.81.73,1.64,1,2.49l.21.53Zm-4-5.57-.07,0-.11-.22c-.15-.28-.32-.58-.55-.94l-.17-.27.33,0,1.49.2h.07l0,.06c.29.45.58.91.84,1.36l.2.34-.38-.11c-.53-.15-1.09-.3-1.69-.44M52,58.92c-.61-.66-1.26-1.3-1.93-1.92l0,0V56.9c-.07-.49-.14-.91-.21-1.3l-.06-.38.31.22c.63.44,1.24.9,1.79,1.35l0,0,0,.06c.13.61.25,1.25.36,1.91l.08.51Zm-2.5-4.87c-.06-.28-.13-.57-.2-.85l-.07-.27.27.08.84.27.44.16.2.07,0,.08c.12.37.24.74.35,1.12l.1.35-.32-.17-1-.52-.3-.13-.26-.11ZM49,52.21l0-.1c-.06-.22-.13-.43-.19-.65l-.07-.21h.22c.36,0,.73,0,1.09,0h.1l0,.1c.11.26.21.53.31.79l.09.26-.27,0-1.19-.17Zm-.47-1.53-.1-.28-.09-.29a2,2,0,0,1-.1-.26l-.11-.27.14-.06c.22-.1.47-.2.77-.31l.13-.05.07.13c.16.34.31.68.46,1l.09.19-.21,0-.92.13ZM40.24,61l-.5.31.28-.52c.43-.82.84-1.66,1.21-2.5v0l0,0c.72-.48,1.43-1,2.14-1.56l.37-.29-.12.46-.24.83c-.14.45-.29.92-.47,1.45l0,0,0,0c-.84.62-1.74,1.23-2.67,1.81M37.53,57l-.53.2.45-.56.15-.18h0c.52-.66,1-1.38,1.55-2.13l0,0,0,0c.6-.23,1.22-.48,1.85-.75l.39-.17-.19.38c-.35.74-.74,1.47-1.14,2.17l0,0,0,0c-.83.38-1.68.74-2.54,1m-1-4.68.39-.36c.67-.61,1.33-1.26,2-1.93l0,0H39l1.34-.21.39-.07-.23.32q-.66.93-1.38,1.8l0,0H39c-.64.14-1.29.27-2,.37ZM34.43,39.54a33.29,33.29,0,0,0,3.38,1.69l0,0,0,0c.5.73,1,1.45,1.57,2.13l.29.38-.46-.13c-.29-.07-.58-.16-.86-.24-.65-.2-1.3-.41-2-.67h0l0,0c-.76-1-1.47-1.94-2.12-2.94l-.35-.54Zm4.94-2.11.2.17h0c.75.59,1.54,1.16,2.36,1.7l0,0,0,.05c.23.63.46,1.22.71,1.78l.17.39-.38-.18c-.8-.38-1.6-.79-2.36-1.24l-.05,0,0,0c-.39-.83-.75-1.69-1.07-2.55l-.2-.54Zm4.24,5.75.07,0,.07.14c.2.36.4.71.58,1l.16.27-.31,0c-.55-.06-1.1-.13-1.64-.22h-.07l0-.06c-.3-.46-.59-.92-.87-1.39l-.2-.34.39.11c.61.19,1.23.35,1.86.5m.55-6.13c.6.65,1.25,1.3,1.92,1.92l0,0v.06c.06.47.12.91.19,1.31l.06.38-.31-.22c-.63-.45-1.23-.9-1.78-1.36l0,0,0-.06c-.13-.62-.25-1.26-.34-1.91l-.08-.51Zm2.46,4.89c.06.29.13.57.2.86l.06.27L46.61,43l-.73-.24h0l-.56-.21-.15,0,0-.07c-.12-.34-.23-.7-.36-1.14l-.1-.35.33.17c.42.22.78.4,1.13.56l.22.1.24.1Zm.47,1.87,0,.1c.07.22.13.44.2.66l.07.21h-.22l-1,0h-.1l0-.09-.33-.8-.11-.26.28,0c.38.07.76.12,1.13.17Zm.48,1.56,0,.12c.09.26.19.52.28.77l.06.14-.14.06c-.18.08-.37.17-.56.24l-.08,0L47,46.8l-.57-1.27.22,0,.83-.11Zm2.89-6.63c-.09.86-.15,1.75-.17,2.65v.06l0,0c-.57.54-1.88,1.64-1.88,1.64-.07-.61-.12-1.22-.15-1.84a10.69,10.69,0,0,1,2.25-2.56m5.68-4.43.53-.34-.31.55c-.6,1.08-1.15,2.21-1.64,3.34l0,0,0,0c-.73.5-1.43,1-2.09,1.54l-.37.29.12-.46c.09-.34.18-.68.29-1,.17-.6.37-1.21.59-1.81l0,0,0,0c.9-.72,1.87-1.42,2.89-2.09M54.86,45c-.17.32-.33.65-.49,1l-.14.33-.12.27-.08,0-.84.2-.27.07.08-.27c.09-.3.19-.59.29-.89l.12-.34.08-.22.07,0c.34-.12.7-.24,1.11-.36l.36-.1ZM53,48.34c.45-.05.9-.08,1.35-.11h.06l.39.3c.78.6,2.27,1.9,2.27,1.9l-.4,0c-.66,0-1.34-.09-2-.11h-.06l0,0c-.53-.57-1.08-1.11-1.64-1.62l-.25-.24Zm-1.35-4-.28.16,0-.32c.06-.55.13-1.1.21-1.63v-.07l.06,0c.46-.31.91-.6,1.36-.86l.34-.2-.11.38c-.18.61-.34,1.23-.48,1.85l0,.08-.08,0c-.39.21-.75.42-1,.6m-1.4,4.49a8.43,8.43,0,0,1,.91-.21l.09,0,.06.07c.38.45.75.91,1.1,1.38l.18.24h-.3l-1.22.07H51l0-.08c-.22-.33-.51-.78-.78-1.24l-.1-.18ZM51.38,46l.78-.32.26-.11,0,.28c-.06.38-.12.75-.16,1.13l0,.1-.1,0-.64.19-.21.07v-.22c0-.34,0-.67,0-1v-.1Zm-.86.38,0,.21.12.83,0,.14-.12,0-.82.29L49.6,48l-.06-.14c-.1-.23-.2-.46-.29-.7l0-.14Zm-1.9-1.51,0-.09.07-.06q.67-.57,1.38-1.11l.24-.18v.3c0,.38,0,.8.08,1.26v.1l-.09,0c-.45.27-.86.5-1.25.71l-.17.09-.05-.19c-.08-.3-.15-.6-.21-.88m-.68,3.77-.15.07-.06-.15-.28-.66-.07-.15.15-.06.65-.28.15-.06.06.14c.09.22.19.44.29.65l.07.15-.15.06-.66.29m-1.49,7.43c-.11.12-.24.23-.36.35l-.49.46,0-.42c0-.58.08-1.18.1-1.78v-.07l0,0c.58-.55,2-1.63,2-1.63.07.45.12.93.16,1.45q-.07.16-.18.36c-.49.53-1,1-1.28,1.32M44.78,48.7v.22c0,.37,0,.73,0,1.09v.1l-.09,0-.81.32-.26.09,0-.27.18-1.2V49l.1,0,.66-.19Zm1-1.51c-.29.08-.58.16-.87.22l-.09,0-.06-.07c-.38-.45-.75-.91-1.1-1.37l-.19-.24h.31c.39,0,.8,0,1.26-.08h.1l0,.08c.26.44.48.84.69,1.22l.09.17Zm1.2,3,.18-.11.06.2c.08.3.16.6.23.89l0,.1-.08.06c-.44.38-.91.74-1.37,1.09l-.24.18v-.3c0-.38,0-.78-.07-1.21V51l.08-.05c.48-.31.86-.55,1.21-.75m-.24-.95-1,.45-.19.08,0-.21c0-.31-.08-.61-.13-.92v-.13l.26-.09.28-.1.23-.08.28-.1.08.19c.07.15.13.3.19.45s0,.1,0,.15l.09.25Zm-4,5c.16-.54.32-1.11.46-1.7l0-.07.25-.13c.28-.15.57-.32.92-.54l.28-.17,0,.33c0,.48-.12,1-.2,1.5v.06l-.06,0c-.46.3-.92.59-1.39.86l-.34.2ZM41.06,51.1c.24-.46.43-.84.6-1.21a1.08,1.08,0,0,0,.08-.19l.1-.22.08,0,.87-.2.27-.07-.09.27c-.07.23-.14.47-.22.7s-.17.48-.26.72l0,.07-.07,0c-.38.13-.76.24-1.15.35l-.35.11Zm-2.94-5.62a31.15,31.15,0,0,0,3.27.26h.06l0,0,1.84,1.92a24.32,24.32,0,0,1-3.05.27,21.42,21.42,0,0,1-2.17-2.5m20.25-6.43.54-.2-.47.59c-.63.79-1.24,1.64-1.82,2.52l0,0-.05,0c-.64.23-1.21.46-1.75.7l-.39.17.18-.38c.37-.8.77-1.58,1.21-2.34l0,0,0,0c.81-.38,1.65-.74,2.5-1.06M96,48.18a4,4,0,0,0-2.45-3.63c-10.41-4.35-22-6.56-33.13-3.73l-.62.15.47-.43a33.19,33.19,0,0,1,4.15-3.17l.06,0c1-.18,1.95-.32,2.9-.42A52.9,52.9,0,0,1,86.23,38.6a3.67,3.67,0,0,0,4.14-1.68,3.75,3.75,0,0,0-.4-4.55l-.08-.09a3.79,3.79,0,0,0-2.43-1.23c-1.76-.17-3.47-.27-5.11-.31H81.19A49.38,49.38,0,0,0,59.86,35l-.68.32.49-.57a37,37,0,0,1,7-6.24c1.81-1.24,6.11-2.51,6-5.2v-.07A2.66,2.66,0,0,0,71.15,21C68.72,19.76,56,30.48,56,30.48c1.2-1,1.92-4.09,7.56-9.14,2.2-2,9.17-5.11,6.13-9a3.4,3.4,0,0,0-4.89-.43C58.3,18,53,26,51.1,34.83a24.17,24.17,0,0,0-2.88,3.47c.41-.63.22-2.6.34-3.4a35.55,35.55,0,0,1,.85-4A39.42,39.42,0,0,1,51.91,24,51.29,51.29,0,0,1,62.16,9.88a3.88,3.88,0,0,0,1.11-3.1,3.69,3.69,0,0,0-1.61-2.71L61.55,4a3.78,3.78,0,0,0-5.18,1C49.7,14.26,45,25.71,46,37.37l.07.91-.37-.84a23.31,23.31,0,0,0-2.11-3.75l0,0v0a42.37,42.37,0,0,1,2.81-16.82,56.11,56.11,0,0,1,3.55-7.72c1.23-2.24,3.42-4.36,1.94-7a4,4,0,0,0-3.53-2h-.1a4,4,0,0,0-3.63,2.45c-4.29,10.25-6.51,22-3.78,32.93l.15.63-.43-.48c-1.33-1.51-2.88-3.15-3.32-5.12a31.25,31.25,0,0,1-.47-7.48A62.69,62.69,0,0,1,37.86,13c.5-2.58,1.89-5.6-.94-7.33a3.77,3.77,0,0,0-4.55.4l-.09.09C30.86,7.42,31,9.46,30.83,11.21a56.39,56.39,0,0,0,0,7.12A48.79,48.79,0,0,0,34.88,36l.32.68-.57-.5a36.18,36.18,0,0,1-5.82-6.57c-.55-.75-1-1.56-1.52-2.34-.13-.23-.27-.45-.41-.68s-.43-.8-.92-1.75a2.68,2.68,0,0,0-2.55-1.44h-.08a2.65,2.65,0,0,0-2.25,1.5c-1.18,2.41,9.76,14.38,9.76,14.38s-8.24-5.33-11.66-9.83C17.76,27.56,15.7,24.68,13,26l-.09,0a3.27,3.27,0,0,0-1.74,2.36c-.56,3.25,4.76,6.69,7,8.39a43.1,43.1,0,0,0,16.22,8,28.15,28.15,0,0,0,3.12,3.11,36.6,36.6,0,0,1-6.73-1.14c-8.11-2.15-15.08-7-21-12.87a3.74,3.74,0,0,0-5.74.57L4,34.59a3.75,3.75,0,0,0,1,5.13c9.69,7,20.93,11.31,33,10.49-1.72.3-3,1.85-4.66,2.3a7.24,7.24,0,0,1-1.86.16c-9.07-.09-17.74-3.52-25.37-8.25A4,4,0,0,0,0,47.84v.1a4,4,0,0,0,2.45,3.63c10.19,4.26,21.73,6.59,32.65,4l.63-.15-.49.42a11.54,11.54,0,0,1-5.7,3.11C23.21,60.17,16.06,59,9.9,57.38a3.67,3.67,0,0,0-4.14,1.67,3.76,3.76,0,0,0,.4,4.56l.08.09a3.79,3.79,0,0,0,2.43,1.23c9.15.88,18.82.13,27.32-3.79l.68-.32-.49.56a38.56,38.56,0,0,1-11.36,8.69,2.68,2.68,0,0,0-1.44,2.55v.06A2.93,2.93,0,0,0,24.88,75c2.66,1.72,14.46-8.4,15.43-10A42.23,42.23,0,0,1,28.85,77.52C27,78.84,24.71,80.44,26,83l0,.08a3.28,3.28,0,0,0,5.17.9c.82-.78,1.41-1.36,1.71-1.69l1.37-1.45c4.52-5.31,8.38-11.3,10.21-18.08A30.85,30.85,0,0,0,47.94,58c-.41.74-.22,2.56-.36,3.43a33.86,33.86,0,0,1-.71,3.47,42.78,42.78,0,0,1-2.56,6.94A51.31,51.31,0,0,1,33.9,86.22,3.74,3.74,0,0,0,34.47,92l.12.08a3.75,3.75,0,0,0,5.13-1c6.89-9.55,11.17-20.6,10.53-32.53,0,.74,1.4,2.26,1.71,3.06a12.2,12.2,0,0,1,.78,3.92c.3,8.59-3.9,17.27-8.32,24.4A4,4,0,0,0,47.84,96H48a4,4,0,0,0,3.62-2.45,57.53,57.53,0,0,0,3.74-33.45,13.05,13.05,0,0,1,3.27,4.62A10.6,10.6,0,0,1,59,67.06a52.53,52.53,0,0,1-1.64,19.08,3.67,3.67,0,0,0,1.68,4.14,3.77,3.77,0,0,0,4.55-.41l.09-.08a3.77,3.77,0,0,0,1.23-2.43c.89-9.26.1-19-3.88-27.51l-.32-.68.57.49a36,36,0,0,1,6,6.79c.55.75,1,1.56,1.52,2.34l.41.67c.16.27.59,1.1.93,1.75a2.68,2.68,0,0,0,2.54,1.45h.09a2.65,2.65,0,0,0,2.24-1.5c1.07-2.18-1.38-4.32-2.69-5.79-2.56-2.9-4.57-6.14-7-9.08l-.6-.72.8.48A43.8,43.8,0,0,1,79,69a3.29,3.29,0,0,0,4.17,1l.08,0a3.26,3.26,0,0,0,.9-5.16c-.78-.83-1.36-1.42-1.68-1.71-5.94-5.4-12.64-9.94-20.52-11.84a32.42,32.42,0,0,0-3.66-3c.63.44,2.74.28,3.55.42a41.47,41.47,0,0,1,11.4,3.82A52.51,52.51,0,0,1,81.6,58c2.08,1.68,4.67,5.52,7.65,5.22A3.65,3.65,0,0,0,92,61.66l.08-.11a3.79,3.79,0,0,0-1-5.18C81.56,49.55,70.16,44.93,58.31,46c0,0,2.58-1.59,3.81-2.42l0,0h0a36,36,0,0,1,8.09.43c7,.95,13.66,4,19.63,7.74A4,4,0,0,0,96,48.28Z"/></g></g></svg>